# xmcd CD database file
#
# Track frame offsets:
#	150
#	15633
#	31609
#	41878
#	56224
#	68739
#	83047
#	93621
#	120074
#	133792
#	141892
#	155992
#	171854
#	185045
#	193954
#	205907
#	217756
#	238943
#	247500
#
# Disc length: 3476 seconds
#
# Revision: 2
# Processed by: cddbd v1.5.2PL0 Copyright (c) Steve Scherf et al.
# Submitted via: CDex 1.70beta2
#
DISCID=0e0d9213
DTITLE=Various Artist - Something Swingin' 1.2
DYEAR=2003
DGENRE=Jazz
TTITLE0=Nat King Cole - Unforgettable
TTITLE1=Johnny Mathis - Misty
TTITLE2=Louis Armstrong - What A Wonderful World
TTITLE3=Mama Cass - Dream A Little Dream Of Me
TTITLE4=Dinah Washington - Mad About The Boy
TTITLE5=Andy Williams - Can't Take My Eyes Out Of You
TTITLE6=Trini Lopez - Made In Paris
TTITLE7=Ella Fitzgerald and Louis Armstrong - Cheek To Cheek
TTITLE8=Bobby Darin - Mack The Knife
TTITLE9=Shirley Bassey  - Big Spender
TTITLE10=Petula Clark - Downtown
TTITLE11=Aretha Franklin - I Say A Little Prayer
TTITLE12=Dionne Warwick - Walk On By
TTITLE13=Tom Jones - It's Not Unusual
TTITLE14=Chris Monteez - The More I See You
TTITLE15=Perez Prado and Rosemary Clooney - Sway
TTITLE16=Louis Prima - Just A Gigolo
TTITLE17=Al Martino  - Spanish Eyes
TTITLE18=Doris Day - Que Sera, Sera (Whatever Will Be, Will Be)
EXTD=YEAR: 2003
EXTT0=
EXTT1=
EXTT2=
EXTT3=
EXTT4=
EXTT5=
EXTT6=
EXTT7=
EXTT8=
EXTT9=
EXTT10=
EXTT11=
EXTT12=
EXTT13=
EXTT14=
EXTT15=
EXTT16=
EXTT17=
EXTT18=
PLAYORDER=
